# xmcd
#
# Track frame offsets: 
#        150
#        14067
#        26960
#        41485
#        56024
#        70380
#        85448
#        98938
#        112339
#        125046
#        138426
#        151289
#        163518
#        175942
#        188619
#        201833
#        214629
#        228515
#        243170
#        256648
#        270925
#        283158
#        297446
#        312484
#
# Disc length: 4339 seconds
#
# Revision: 7
# Processed by: cddbd v1.5.2PL0 Copyright (c) Steve Scherf et al.
# Submitted via: ExactAudioCopy v1.1
#
DISCID=6b10f118
DTITLE=Various Artist - Down In The Basement, Vintage 78S 1926-1937
DYEAR=2002
DGENRE=Blues
TTITLE0=The Stripling Brothers - The Lost Child (mono)
TTITLE1=Big Bill Broonzy - How You Want It Done (mono)
TTITLE2=Luis Russell and His Orchestra - The (New) Call Of The Freaks (m
TTITLE2=ono)
TTITLE3=The Dixon Brothers - School House Fire (mono)
TTITLE4=The Weems String Band - Greenback Dollar (mono)
TTITLE5=Reverend Gary Davis - You Got To Go Down (mono)
TTITLE6=A.A. Gray and Seven-Foot Dilly - The Old Ark's A'Moving (mono)
TTITLE7=James Cole's Washboard Four - Runnin' Wild (mono)
TTITLE8=Charley Jordan - Keep It Clean (mono)
TTITLE9=Bill Johnson's Louisiana Jug Band - Get The 'L' On Down The Ro
TTITLE9=ad (mono)
TTITLE10=The Sweet Brothers and Ernest Stoneman - I Got A Bulldog (mono)
TTITLE11=Coleman and Harper - Old Hen Cackle (mono)
TTITLE12=Bessie Brown - Song From A Cotton Field (mono)
TTITLE13=Gene Autry - Atlanta Bound (mono)
TTITLE14=Leo Soileau and Moise Robin - Easy Rider Blues (mono)
TTITLE15=Bill Brown and His Brownies - Hot Lips (mono)
TTITLE16=Uncle Dave Macon - Uncle Dave's Beloved Solo (mono)
TTITLE17=Blind Blake and Charlie Spand - Hastings Street (mono)
TTITLE18=Fields Ward and The Grayson County Railsplitters - Ain't That T
TTITLE18=rouble In Mind (mono)
TTITLE19=The Corley Family - Give The World A Smile (mono)
TTITLE20=Long Cleve Reed and Little Harvey Hull - Original Stack O'Lee B
TTITLE20=lues (mono)
TTITLE21=Fess Williams and His Royal Flush Orchestra - Hot Town (mono)
TTITLE22=Gitfiddle Jim (Kokomo Arnold) - Paddlin' Blues (mono)
TTITLE23=The Grinnell Giggers - Plow Boy Hop (mono)
EXTD=
EXTT0=
EXTT1=
EXTT2=
EXTT3=
EXTT4=
EXTT5=
EXTT6=
EXTT7=
EXTT8=
EXTT9=
EXTT10=
EXTT11=
EXTT12=
EXTT13=
EXTT14=
EXTT15=
EXTT16=
EXTT17=
EXTT18=
EXTT19=
EXTT20=
EXTT21=
EXTT22=
EXTT23=
PLAYORDER=
